<svg width="30" height="30" viewBox="0 0 30 30" fill="none" xmlns="http://www.w3.org/2000/svg">
<path d="M24.6338 14.1162C25.1225 14.6049 25.1225 15.395 24.6338 15.8838L15.8838 24.6338C15.64 24.8775 15.32 25 15 25C14.68 25 14.3599 24.8775 14.1162 24.6338L5.3662 15.8838C4.87745 15.395 4.87745 14.6049 5.3662 14.1162C5.85495 13.6274 6.64502 13.6274 7.13377 14.1162L15 21.9824L22.8662 14.1162C23.3549 13.6274 24.145 13.6274 24.6338 14.1162ZM14.1162 15.8838C14.3599 16.1275 14.68 16.25 15 16.25C15.32 16.25 15.64 16.1275 15.8838 15.8838L24.6338 7.13377C25.1225 6.64502 25.1225 5.85495 24.6338 5.3662C24.145 4.87745 23.3549 4.87745 22.8662 5.3662L15 13.2324L7.13377 5.3662C6.64502 4.87745 5.85495 4.87745 5.3662 5.3662C4.87745 5.85495 4.87745 6.64502 5.3662 7.13377L14.1162 15.8838Z" fill="white"/>
</svg>
