<svg width="55" height="55" viewBox="0 0 55 55" fill="none" xmlns="http://www.w3.org/2000/svg">
<g id="Group 58">
<rect id="Rectangle 12" x="0.5" y="0.5" width="54" height="54" rx="9.5" stroke="#B6F09A" stroke-opacity="0.3"/>
<g id="Group">
<path id="Vector" d="M35.659 28.5909C35.1014 27.8699 34.26 27.3747 33.1349 27.1056C34.5677 26.3747 35.1973 25.1343 35.0245 23.3841C34.9667 22.7494 34.7913 22.1994 34.4978 21.7332C34.2042 21.2668 33.808 20.8919 33.3077 20.6083C32.8078 20.3244 32.264 20.1082 31.6778 19.9592C31.0914 19.8101 30.4181 19.7019 29.6585 19.6347V16H27.4375V19.5337C27.0529 19.5337 26.4664 19.5433 25.678 19.5625V16H23.4567V19.6347C23.1393 19.6443 22.673 19.6492 22.0577 19.6492L19 19.6347V22.0001H20.6009C21.3317 22.0001 21.7596 22.3271 21.8845 22.9809V27.1205C21.9808 27.1205 22.0577 27.1254 22.1154 27.135H21.8845V32.9329C21.8077 33.4232 21.5289 33.6686 21.0481 33.6686H19.4473L19.0001 36.3081H21.8848C22.0675 36.3081 22.3318 36.3105 22.6781 36.3149C23.0242 36.3197 23.2837 36.3221 23.4568 36.3221V40H25.6784V36.3654C26.0822 36.3752 26.6687 36.3799 27.4379 36.3799V40H29.659V36.3221C30.4476 36.2837 31.1471 36.212 31.7574 36.1059C32.368 35.9997 32.9523 35.8341 33.5099 35.608C34.0674 35.3822 34.5337 35.1008 34.9086 34.7642C35.2838 34.428 35.5936 33.9999 35.8392 33.4805C36.084 32.9612 36.2405 32.3602 36.3076 31.6774C36.4331 30.3412 36.2166 29.3122 35.659 28.5909ZM25.7212 22.1584C25.7885 22.1584 25.9784 22.1559 26.2909 22.1511C26.6036 22.1461 26.8631 22.1414 27.0698 22.1365C27.2766 22.1318 27.5554 22.1438 27.9065 22.1727C28.2575 22.2015 28.5531 22.24 28.7934 22.288C29.0338 22.336 29.2984 22.4154 29.5866 22.526C29.8753 22.6365 30.106 22.7711 30.2788 22.9298C30.4521 23.0884 30.5987 23.2904 30.7186 23.5356C30.839 23.7808 30.8991 24.062 30.8991 24.3793C30.8991 24.6486 30.8559 24.8938 30.7695 25.1151C30.6832 25.3362 30.553 25.5214 30.3802 25.6704C30.2072 25.8195 30.029 25.9494 29.8463 26.0599C29.6638 26.1704 29.4304 26.2594 29.1468 26.3266C28.8633 26.394 28.6157 26.4468 28.4043 26.4852C28.1927 26.5237 27.9284 26.5503 27.611 26.5646C27.2936 26.5789 27.0531 26.5888 26.8898 26.5935C26.7262 26.5982 26.5028 26.5982 26.219 26.5935C25.9352 26.5888 25.7695 26.5862 25.7213 26.5862V22.1583H25.7212V22.1584ZM31.7864 31.9804C31.6948 32.2017 31.5772 32.3941 31.4331 32.5577C31.2887 32.7209 31.0987 32.8653 30.8632 32.9901C30.6278 33.1153 30.3992 33.2161 30.1782 33.293C29.957 33.3703 29.69 33.4372 29.3778 33.4951C29.0649 33.5528 28.7911 33.5934 28.5553 33.6176C28.3198 33.6417 28.0387 33.6609 27.7116 33.6754C27.3848 33.6896 27.1298 33.6969 26.9472 33.6969C26.7645 33.6969 26.5337 33.6943 26.2548 33.6896C25.9758 33.6851 25.7981 33.6827 25.7211 33.6827V28.8074C25.7979 28.8074 26.0263 28.8027 26.4062 28.7929C26.7862 28.7832 27.0961 28.7787 27.3365 28.7787C27.5769 28.7787 27.9087 28.7929 28.332 28.822C28.7548 28.8506 29.1106 28.8937 29.3993 28.9514C29.6877 29.0092 30.0023 29.098 30.3439 29.2183C30.6852 29.3385 30.9618 29.4851 31.1734 29.6581C31.385 29.8315 31.5627 30.0523 31.7069 30.3216C31.8515 30.5908 31.9235 30.8986 31.9235 31.2448C31.9235 31.5143 31.8779 31.7591 31.7864 31.9804Z" fill="#45A2ED"/>
</g>
</g>
</svg>
