<svg width="31" height="30" viewBox="0 0 31 30" fill="none" xmlns="http://www.w3.org/2000/svg">
<g id="github">
<path id="github_2" fill-rule="evenodd" clip-rule="evenodd" d="M26.6445 15C26.6445 19.9875 23.3945 24.2 18.907 25.6875C18.3695 25.775 18.182 25.4375 18.182 25.15C18.182 24.775 18.1945 23.5625 18.1945 22.0625C18.1945 21.0125 17.832 20.325 17.432 19.975C19.932 19.7 22.5695 18.75 22.5695 14.425C22.5695 13.2 22.132 12.2 21.407 11.4125C21.532 11.125 21.9195 9.97499 21.307 8.42499C21.307 8.42499 20.357 8.12502 18.207 9.58752C17.307 9.33752 16.3445 9.21248 15.3945 9.19998C14.432 9.21248 13.4695 9.33752 12.582 9.58752C10.432 8.12502 9.48206 8.42499 9.48206 8.42499C8.86956 9.97499 9.25702 11.125 9.36952 11.4125C8.65702 12.2 8.21954 13.2 8.21954 14.425C8.21954 18.7375 10.8445 19.7 13.3445 19.9875C13.0195 20.2625 12.732 20.7625 12.632 21.4875C11.982 21.775 10.357 22.275 9.35701 20.55C9.35701 20.55 8.757 19.475 7.632 19.4C7.632 19.4 6.53201 19.3875 7.55701 20.075C7.55701 20.075 8.29451 20.425 8.80701 21.725C8.80701 21.725 9.45704 23.7375 12.5945 23.05C12.5945 23.9875 12.6071 24.875 12.6071 25.15C12.6071 25.425 12.407 25.775 11.882 25.6875C7.39453 24.2125 4.14453 19.9875 4.14453 15C4.14453 8.7875 9.18203 3.75 15.3945 3.75C21.607 3.75 26.6445 8.7875 26.6445 15Z" fill="white"/>
</g>
</svg>
