<svg width="24" height="24" viewBox="0 0 24 24" fill="none" xmlns="http://www.w3.org/2000/svg">
<path d="M23.0375 15.25C21.875 14.575 21.1625 13.3375 21.1625 12C21.1625 10.6625 21.875 9.42499 23.0375 8.74999C23.2375 8.62499 23.3125 8.375 23.1875 8.175L21.1 4.575C21.025 4.4375 20.8875 4.36252 20.75 4.36252C20.675 4.36252 20.6 4.3875 20.5375 4.425C19.9625 4.75 19.3125 4.925 18.6625 4.925C18 4.925 17.35 4.74999 16.7625 4.41249C15.6 3.73749 14.8875 2.5125 14.8875 1.175C14.8875 0.937495 14.7 0.75 14.475 0.75H9.52499C9.29999 0.75 9.1125 0.937495 9.1125 1.175C9.1125 2.5125 8.4 3.73749 7.2375 4.41249C6.65 4.74999 6.00002 4.925 5.33752 4.925C4.68752 4.925 4.03752 4.75 3.46252 4.425C3.26252 4.3 3.0125 4.375 2.9 4.575L0.800011 8.175C0.762511 8.2375 0.75 8.31251 0.75 8.37501C0.75 8.52501 0.825017 8.66249 0.962517 8.74999C2.12502 9.42499 2.83752 10.65 2.83752 11.9875C2.83752 13.3375 2.12499 14.575 0.974991 15.25H0.962517C0.762517 15.375 0.687485 15.625 0.812485 15.825L2.9 19.425C2.975 19.5625 3.1125 19.6375 3.25 19.6375C3.325 19.6375 3.40002 19.6125 3.46252 19.575C4.63752 18.9125 6.075 18.9125 7.2375 19.5875C8.3875 20.2625 9.09999 21.4875 9.09999 22.825C9.09999 23.0625 9.28749 23.25 9.52499 23.25H14.475C14.7 23.25 14.8875 23.0625 14.8875 22.825C14.8875 21.4875 15.6 20.2625 16.7625 19.5875C17.35 19.25 18 19.075 18.6625 19.075C19.3125 19.075 19.9625 19.25 20.5375 19.575C20.7375 19.7 20.9875 19.625 21.1 19.425L23.2 15.825C23.2375 15.7625 23.25 15.6875 23.25 15.625C23.25 15.475 23.175 15.3375 23.0375 15.25ZM12 15.75C9.925 15.75 8.25 14.075 8.25 12C8.25 9.925 9.925 8.25 12 8.25C14.075 8.25 15.75 9.925 15.75 12C15.75 14.075 14.075 15.75 12 15.75Z" fill="url(#paint0_linear_190_10)"/>
<defs>
<linearGradient id="paint0_linear_190_10" x1="-4" y1="-6" x2="12" y2="23.25" gradientUnits="userSpaceOnUse">
<stop stop-color="#4B2FBA"/>
<stop offset="1" stop-color="#44C0FA"/>
</linearGradient>
</defs>
</svg>
