<svg width="31" height="30" viewBox="0 0 31 30" fill="none" xmlns="http://www.w3.org/2000/svg">
<g id="youtube">
<path id="youtube_2" d="M27.1469 8.9875C26.8594 7.9125 26.0094 7.0625 24.9344 6.775C22.9844 6.25 15.1719 6.25 15.1719 6.25C15.1719 6.25 7.35938 6.25 5.40938 6.775C4.33438 7.0625 3.48439 7.9125 3.19689 8.9875C2.67189 10.9375 2.67188 15.0125 2.67188 15.0125C2.67188 15.0125 2.67189 19.0875 3.19689 21.0375C3.48439 22.1125 4.33438 22.925 5.40938 23.2125C7.35938 23.7375 15.1719 23.7375 15.1719 23.7375C15.1719 23.7375 22.9844 23.7375 24.9344 23.2125C26.0094 22.925 26.8594 22.1125 27.1469 21.0375C27.6719 19.0875 27.6719 15.0125 27.6719 15.0125C27.6719 15.0125 27.6719 10.9375 27.1469 8.9875ZM12.6719 18.75V11.25L18.9219 15L12.6719 18.75Z" fill="white"/>
</g>
</svg>
